<svg viewBox="0 0 1200 400" xmlns="http://www.w3.org/2000/svg" font-family="Inter, -apple-system, sans-serif">
  <!-- Background -->
  <defs>
    <linearGradient id="bg" x1="0%" y1="0%" x2="100%" y2="100%">
      <stop offset="0%" style="stop-color:#0f172a"/>
      <stop offset="100%" style="stop-color:#1e293b"/>
    </linearGradient>
    <linearGradient id="shield-grad" x1="0%" y1="0%" x2="100%" y2="100%">
      <stop offset="0%" style="stop-color:#3b82f6"/>
      <stop offset="100%" style="stop-color:#6366f1"/>
    </linearGradient>
    <filter id="glow">
      <feGaussianBlur stdDeviation="3" result="blur"/>
      <feMerge><feMergeNode in="blur"/><feMergeNode in="SourceGraphic"/></feMerge>
    </filter>
  </defs>

  <!-- Background rect -->
  <rect width="1200" height="400" fill="url(#bg)" rx="16"/>

  <!-- Grid lines (subtle) -->
  <g stroke="#334155" stroke-width="0.5" opacity="0.4">
    <line x1="0" y1="80" x2="1200" y2="80"/>
    <line x1="0" y1="160" x2="1200" y2="160"/>
    <line x1="0" y1="240" x2="1200" y2="240"/>
    <line x1="0" y1="320" x2="1200" y2="320"/>
    <line x1="200" y1="0" x2="200" y2="400"/>
    <line x1="400" y1="0" x2="400" y2="400"/>
    <line x1="600" y1="0" x2="600" y2="400"/>
    <line x1="800" y1="0" x2="800" y2="400"/>
    <line x1="1000" y1="0" x2="1000" y2="400"/>
  </g>

  <!-- Floating circles (decorative) -->
  <circle cx="950" cy="80" r="120" fill="#3b82f6" opacity="0.05"/>
  <circle cx="1100" cy="300" r="80" fill="#6366f1" opacity="0.07"/>
  <circle cx="80" cy="320" r="60" fill="#3b82f6" opacity="0.05"/>

  <!-- Shield icon -->
  <g transform="translate(780, 60)" filter="url(#glow)">
    <!-- Shield body -->
    <path d="M140 0 L280 50 L280 160 C280 240 140 290 140 290 C140 290 0 240 0 160 L0 50 Z" 
          fill="url(#shield-grad)" opacity="0.15" rx="8"/>
    <path d="M140 15 L265 60 L265 160 C265 232 140 276 140 276 C140 276 15 232 15 160 L15 60 Z" 
          fill="none" stroke="#3b82f6" stroke-width="2" opacity="0.6"/>
    <!-- Lock icon inside shield -->
    <rect x="108" y="130" width="64" height="50" rx="6" fill="#3b82f6" opacity="0.8"/>
    <path d="M118 130 L118 110 C118 88 162 88 162 110 L162 130" 
          fill="none" stroke="#3b82f6" stroke-width="6" stroke-linecap="round" opacity="0.8"/>
    <circle cx="140" cy="153" r="8" fill="#0f172a"/>
    <rect x="137" y="158" width="6" height="10" rx="3" fill="#0f172a"/>
  </g>

  <!-- Terminal window decoration -->
  <g transform="translate(860, 220)">
    <rect width="280" height="140" rx="8" fill="#1e293b" stroke="#334155" stroke-width="1"/>
    <rect width="280" height="28" rx="8" fill="#334155"/>
    <rect y="20" width="280" height="8" fill="#334155"/>
    <circle cx="16" cy="14" r="5" fill="#ef4444"/>
    <circle cx="34" cy="14" r="5" fill="#eab308"/>
    <circle cx="52" cy="14" r="5" fill="#22c55e"/>
    <!-- Terminal text -->
    <text x="14" y="58" fill="#22c55e" font-size="11" font-family="monospace">$ nmap -sV target.example.com</text>
    <text x="14" y="76" fill="#64748b" font-size="11" font-family="monospace">Starting Nmap 7.93...</text>
    <text x="14" y="94" fill="#94a3b8" font-size="11" font-family="monospace">PORT    STATE  SERVICE</text>
    <text x="14" y="112" fill="#22c55e" font-size="11" font-family="monospace">80/tcp  open   http</text>
    <text x="14" y="130" fill="#22c55e" font-size="11" font-family="monospace">443/tcp open   https</text>
  </g>

  <!-- Main text -->
  <text x="80" y="120" fill="#f1f5f9" font-size="52" font-weight="700" letter-spacing="-1">Cyber Security</text>
  <text x="80" y="165" fill="#94a3b8" font-size="22" font-weight="400">Master offensive and defensive security</text>
  <text x="80" y="200" fill="#94a3b8" font-size="22" font-weight="400">from fundamentals to red team operations</text>

  <!-- Stats row -->
  <g transform="translate(80, 250)">
    <!-- Stat 1 -->
    <rect width="150" height="70" rx="10" fill="#1e293b" stroke="#334155" stroke-width="1"/>
    <text x="75" y="30" fill="#3b82f6" font-size="28" font-weight="700" text-anchor="middle">80</text>
    <text x="75" y="52" fill="#64748b" font-size="13" text-anchor="middle">Hands-on Labs</text>

    <!-- Stat 2 -->
    <rect x="170" width="150" height="70" rx="10" fill="#1e293b" stroke="#334155" stroke-width="1"/>
    <text x="245" y="30" fill="#6366f1" font-size="28" font-weight="700" text-anchor="middle">4</text>
    <text x="245" y="52" fill="#64748b" font-size="13" text-anchor="middle">Skill Levels</text>

    <!-- Stat 3 -->
    <rect x="340" width="150" height="70" rx="10" fill="#1e293b" stroke="#334155" stroke-width="1"/>
    <text x="415" y="30" fill="#22c55e" font-size="28" font-weight="700" text-anchor="middle">OWASP</text>
    <text x="415" y="52" fill="#64748b" font-size="13" text-anchor="middle">Top 10 Covered</text>

    <!-- Stat 4 -->
    <rect x="510" width="150" height="70" rx="10" fill="#1e293b" stroke="#334155" stroke-width="1"/>
    <text x="585" y="30" fill="#f59e0b" font-size="28" font-weight="700" text-anchor="middle">CTF</text>
    <text x="585" y="52" fill="#64748b" font-size="13" text-anchor="middle">Ready Skills</text>
  </g>

  <!-- Bottom label -->
  <text x="80" y="385" fill="#475569" font-size="13">innozverse.com · docs.innozverse.com/cyber-security</text>
</svg>
